<?xml version="1.0" encoding="UTF-8"?>
<svg xmlns="http://www.w3.org/2000/svg" version="1.1" viewBox="0 0 385.71 140.56">
  <defs>
    <style>
      .cls-1 {
        fill: #fff;
      }
    </style>
  </defs>
  <!-- Generator: Adobe Illustrator 28.7.5, SVG Export Plug-In . SVG Version: 1.2.0 Build 176)  -->
  <g>
    <g id="Layer_1">
      <g>
        <g>
          <path class="cls-1" d="M115.63,30.91h21.14v5.95h-8.29c-1.74,0-3.34-.04-4.95-.61l-.82.78c.91,1.22,1.35,2.3,1.35,3.69v1.39c0,1.22-.48,2.3-1.35,3.52l.82.82c1.56-.48,3.21-.65,4.95-.65h7.77v6.25h-7.77c-1.78,0-3.43-.09-4.95-.65l-.82.83c1,1.3,1.35,2.43,1.35,3.95v1.56c0,1.35-.43,2.43-1.35,3.65l.82.78c1.61-.52,3.21-.61,4.95-.61h8.9v6.12h-21.75V30.91Z"/>
          <path class="cls-1" d="M157.87,67.68h-8.33v-26.35c0-1.39.39-2.47,1.3-3.69l-.78-.78c-1.56.52-3.17.61-4.95.61h-4.08v-6.55h25.39v6.55h-4.12c-1.74,0-3.34-.04-4.95-.61l-.78.78c.91,1.22,1.3,2.3,1.3,3.69v26.35Z"/>
          <path class="cls-1" d="M179.74,41.5c0,1.65-.04,3-1.3,4.56l.78.82c1.61-.48,3.21-.65,4.95-.65s3.43.09,5.12.65l.82-.82c-1.35-1.69-1.35-3.13-1.35-4.86v-10.29h8.46v36.77h-8.46v-10.24c0-1.78,0-3.17,1.35-4.86l-.82-.83c-1.56.52-3.21.65-5.04.65-1.69,0-3.34-.04-5.04-.65l-.78.83c1.3,1.69,1.3,3.08,1.3,4.86v10.24h-8.47V30.91h8.47v10.59h.01Z"/>
          <path class="cls-1" d="M126.27,72.27c3.6,0,6.47.09,8.73,1.17,2.56,1.26,4.34,4.17,4.34,7.38,0,4.3-2.73,7.42-7.38,7.99v1c5.6.26,8.38,3.13,8.38,8.64,0,4.38-2.17,7.81-5.25,9.29-2.3,1.08-5.25,1.3-10.07,1.3h-9.38v-36.77h10.63ZM122.71,78.69c.87,1.22,1.35,2.26,1.35,3.56v1.3c0,1.17-.48,2.3-1.35,3.52l.82.82c1.95-.69,3.52-.52,4.6-.78,1.65-.39,3.17-1.69,3.17-4.51,0-2.56-1.56-3.56-2.74-3.91-1.22-.3-1.95-.13-3.34-.39-.74-.13-1.39-.26-1.69-.43l-.82.82ZM124.05,98.36c0,1.56-.26,2.78-1.35,4.17l.82.82c4.95-.43,8.51-.43,8.51-5.3,0-3.82-2.95-4.73-3.91-4.9-1.48-.26-2.65-.3-4.6-.83l-.82.83c1.08,1.3,1.35,2.82,1.35,3.91v1.3h0Z"/>
          <path class="cls-1" d="M171.54,96.88c0,9.07-3.65,12.76-12.94,12.76-6.16,0-9.98-1.65-11.81-5.64-1.04-2.3-1.17-4.99-1.17-8.25v-23.48h8.46v24.05c0,4.82,1.17,7.16,4.43,7.16,3.52,0,4.6-2.6,4.6-7.42v-23.79h8.42v24.61h.01Z"/>
          <path class="cls-1" d="M202.4,83.21h-2.74c-1.65-3.17-3.65-4.73-6.03-4.73-4.25,0-6.77,4.17-6.77,12.28s2.56,12.02,6.73,12.02c2.43,0,4.43-1.56,6.08-4.73h2.74v8.38c-3.39,2.21-6.47,3.21-10.2,3.21-8.81,0-14.41-6.64-14.41-19.01s5.47-18.97,14.8-18.97c3.43,0,6.51,1.04,9.81,3.17v8.38h0Z"/>
          <path class="cls-1" d="M216.99,82.86c0,1.65-.04,3-1.3,4.56l.78.82c1.61-.48,3.21-.65,4.95-.65s3.43.09,5.12.65l.83-.82c-1.35-1.69-1.35-3.13-1.35-4.86v-10.29h8.47v36.77h-8.47v-10.24c0-1.78,0-3.17,1.35-4.86l-.83-.83c-1.56.52-3.21.65-5.04.65-1.69,0-3.34-.04-5.04-.65l-.78.83c1.3,1.69,1.3,3.08,1.3,4.86v10.24h-8.47v-36.77h8.47v10.59h.01Z"/>
          <path class="cls-1" d="M248.54,72.27h11.5l7.94,36.77h-8.29l-.91-4.04c-.26-1.17-.09-2.52.13-3.3l-.52-.48c-1.39.43-2.65.65-4.86.65-2.43,0-3.52-.04-5.12-.65l-.48.39c.09.65.35,2.47,0,3.86l-.91,3.56h-7.94l9.46-36.76ZM252.88,76.35c-.83,9.29-1.95,15.84-3.73,19.66l.52.74c1.39-.39,2.74-.48,4.04-.48,1.22,0,2.43.09,3.69.48l.52-.74c-1.35-2.87-2.78-9.51-3.39-19.66h-1.65Z"/>
          <path class="cls-1" d="M283.49,72.27c3.95,0,7.03.17,9.55,1.65,3.08,1.82,4.73,4.91,4.73,8.81,0,4.9-2.43,7.68-5.99,8.33l-.17,1,9.16,16.97h-9.81l-6.73-15.02c-1.26,0-2.43-.26-3.6-.74l-.69.83c1.17,1.48,1.17,3.52,1.17,6.47v8.47h-8.46v-36.77h10.84ZM279.23,78.69c.65.65,1.13,2.3,1.13,3.73v1.78c0,1.82-.09,3.21-1.22,4.47l.69.78c2.3-.43,4.51-.26,6.42-.74,2.04-.52,3.52-2.47,3.52-4.86s-1.22-4.17-3.39-4.95c-1.74-.61-3.95-.22-6.38-.96l-.77.75Z"/>
          <path class="cls-1" d="M305.28,72.27h21.14v5.95h-8.29c-1.74,0-3.34-.04-4.95-.61l-.82.78c.91,1.22,1.35,2.3,1.35,3.69v1.39c0,1.22-.48,2.3-1.35,3.52l.82.82c1.56-.48,3.21-.65,4.95-.65h7.77v6.25h-7.77c-1.78,0-3.43-.09-4.95-.65l-.82.83c1,1.3,1.35,2.43,1.35,3.95v1.56c0,1.35-.43,2.43-1.35,3.65l.82.78c1.61-.52,3.21-.61,4.95-.61h8.9v6.12h-21.75v-36.77h0Z"/>
          <path class="cls-1" d="M354.24,82.47h-2.73c-1.65-3.26-4.21-4.91-6.51-4.91-2.73,0-4.51,1.65-4.51,3.69,0,3.56,4.47,4.99,10.11,7.81,2.34,1.17,5.6,4.38,5.6,9.16,0,6.34-5.17,11.42-13.46,11.42-3.47,0-6.9-.91-10.68-2.52l.3-9.16h2.52c1.61,3.47,4.69,5.47,7.81,5.47,2.95,0,4.9-1.82,4.9-4.08,0-3.73-3.95-4.69-7.55-6.42-5.25-2.56-7.86-6.08-7.86-10.64,0-6.34,4.51-10.64,12.59-10.64,3.17,0,6.21.74,9.46,2.04v8.78h.01Z"/>
          <path class="cls-1" d="M377.16,109.04h-8.33v-26.35c0-1.39.39-2.47,1.3-3.69l-.78-.78c-1.56.52-3.17.61-4.95.61h-4.08v-6.56h25.39v6.56h-4.12c-1.74,0-3.34-.04-4.95-.61l-.78.78c.91,1.22,1.3,2.3,1.3,3.69v26.35Z"/>
        </g>
        <g>
          <path class="cls-1" d="M88.57,140.56h-26.4l-17.86-29.14-17.24,29.14H0l21.46-35.63L.38,69.93l20.99-34.85L.24,0h26.13l17.94,29.33L63.11,0h25.21l-21.13,35.08,20.99,34.85-.64,1.06-20.44,33.94,21.47,35.63ZM63.85,137.55h19.4l-19.65-32.63,21.08-35-20.99-34.86L83.01,2.98h-18.26l-20.5,31.99L24.68,2.98H5.55l19.32,32.08L3.88,69.92l21.08,35-19.65,32.63h20.04l18.91-31.96,19.59,31.96Z"/>
          <g>
            <polygon class="cls-1" points="44.23 99.25 27.53 75.74 44.23 85.59 60.93 75.71 44.23 99.25"/>
            <polygon class="cls-1" points="44.23 79 27.53 69.14 44.23 41.41 60.93 69.14 44.23 79"/>
            <polygon class="cls-1" points="44.23 79 44.23 41.41 60.93 69.14 44.23 79"/>
            <polygon class="cls-1" points="44.24 85.58 44.24 99.24 60.93 75.71 44.24 85.58"/>
          </g>
        </g>
      </g>
    </g>
  </g>
</svg>